# xmcd
#
# Track frame offsets:
#	150
#	16897
#	35335
#	51502
#	72445
#	89227
#	104940
#	121825
#	142322
#	155452
#
# Disc length: 2368 seconds
#
# Revision: 6
# Processed by: cddbd v1.5.2PL0 Copyright (c) Steve Scherf et al.
# Submitted via: EasyCDDAExtractor 15.3.0.1
#
DISCID=99093e0a
DTITLE=Rocio Durcal - Entre Tangos Y Mariachi
DYEAR=2001
DGENRE=Latin
TTITLE0=Sombras... Nada Mas
TTITLE1=El Ultimo Cafe
TTITLE2=Soñemos
TTITLE3=Nostalgias
TTITLE4=Nada
TTITLE5=Madreselva (Homenaje A Libertad Lamarque)
TTITLE6=Caminito
TTITLE7=Vida Mia
TTITLE8=A Media Luz
TTITLE9=En Esta Tarde Gris
EXTD=
EXTT0=
EXTT1=
EXTT2=
EXTT3=
EXTT4=
EXTT5=
EXTT6=
EXTT7=
EXTT8=
EXTT9=
PLAYORDER=
